<svg width="84" height="84" viewBox="0 0 84 84" fill="none" xmlns="http://www.w3.org/2000/svg">
<rect width="84" height="84" rx="42" fill="#01070E"/>
<path d="M27.3 47.25H45.7625" stroke="#EDF0F6" stroke-width="3.5" stroke-linecap="round" stroke-linejoin="round"/>
<path d="M32.4643 29.6415L38.1693 47.201" stroke="#EDF0F6" stroke-width="3.5" stroke-linecap="round" stroke-linejoin="round"/>
<path d="M50.806 29.113L35.8698 39.9647" stroke="#EDF0F6" stroke-width="3.5" stroke-linecap="round" stroke-linejoin="round"/>
<path d="M56.9782 46.3925L42.042 35.5407" stroke="#EDF0F6" stroke-width="3.5" stroke-linecap="round" stroke-linejoin="round"/>
<path d="M42.4498 57.603L48.1565 40.0435" stroke="#EDF0F6" stroke-width="3.5" stroke-linecap="round" stroke-linejoin="round"/>
<path d="M50.9045 60.5168V60.5393" stroke="#EDF0F6" stroke-width="4.56641" stroke-linecap="round" stroke-linejoin="round"/>
<path d="M58.0737 54.8088V54.8313" stroke="#EDF0F6" stroke-width="4.56641" stroke-linecap="round" stroke-linejoin="round"/>
<path d="M62.0237 46.5664V46.5889" stroke="#EDF0F6" stroke-width="4.56641" stroke-linecap="round" stroke-linejoin="round"/>
<path d="M62.0237 37.4336V37.4561" stroke="#EDF0F6" stroke-width="4.56641" stroke-linecap="round" stroke-linejoin="round"/>
<path d="M58.0737 29.1912V29.2137" stroke="#EDF0F6" stroke-width="4.56641" stroke-linecap="round" stroke-linejoin="round"/>
<path d="M50.9045 23.4832V23.5057" stroke="#EDF0F6" stroke-width="4.56641" stroke-linecap="round" stroke-linejoin="round"/>
<path d="M42 21.4512V21.4737" stroke="#EDF0F6" stroke-width="4.56641" stroke-linecap="round" stroke-linejoin="round"/>
<path d="M33.0955 23.4832V23.5057" stroke="#EDF0F6" stroke-width="4.56641" stroke-linecap="round" stroke-linejoin="round"/>
<path d="M25.9263 29.1912V29.2137" stroke="#EDF0F6" stroke-width="4.56641" stroke-linecap="round" stroke-linejoin="round"/>
<path d="M21.9763 37.4336V37.4561" stroke="#EDF0F6" stroke-width="4.56641" stroke-linecap="round" stroke-linejoin="round"/>
<path d="M21.9763 46.5664V46.5889" stroke="#EDF0F6" stroke-width="4.56641" stroke-linecap="round" stroke-linejoin="round"/>
<path d="M25.9263 54.8088V54.8313" stroke="#EDF0F6" stroke-width="4.56641" stroke-linecap="round" stroke-linejoin="round"/>
<path d="M33.0955 60.5168V60.5393" stroke="#EDF0F6" stroke-width="4.56641" stroke-linecap="round" stroke-linejoin="round"/>
<path d="M42 62.5488V62.5714" stroke="#EDF0F6" stroke-width="4.56641" stroke-linecap="round" stroke-linejoin="round"/>
</svg>
